<?xml version="1.0" encoding="UTF-8"?>
<!DOCTYPE svg PUBLIC "-//W3C//DTD SVG 1.1//EN" "http://www.w3.org/Graphics/SVG/1.1/DTD/svg11.dtd">
<!-- Creator: CorelDRAW -->
<svg xmlns="http://www.w3.org/2000/svg" xml:space="preserve" width="202.213mm" height="119.764mm" version="1.1" style="shape-rendering:geometricPrecision; text-rendering:geometricPrecision; image-rendering:optimizeQuality; fill-rule:evenodd; clip-rule:evenodd"
viewBox="0 0 5020.35 2973.39"
 xmlns:xlink="http://www.w3.org/1999/xlink"
 xmlns:xodm="http://www.corel.com/coreldraw/odm/2003">
 <defs>
  <style type="text/css">
   <![CDATA[
    .fil2 {fill:white}
    .fil1 {fill:white;fill-rule:nonzero}
    .fil0 {fill:white;fill-rule:nonzero}
   ]]>
  </style>
 </defs>
 <g id="Camada_x0020_1">
  <metadata id="CorelCorpID_0Corel-Layer"/>
  <g id="_2102829521648">
   <path class="fil0" d="M1580.76 2052.24l-0.56 -285.96c-334.58,124.66 -677,125.7 -1027.28,3.1l0 282.86c0,348.99 193.86,562.65 512.39,562.65 321.58,0 516.74,-213.66 515.44,-562.65zm-770.66 -4.35l0 -65.06 515.66 0 0 62.44c-0.44,184.07 -98.56,296.12 -259.79,296.12 -159.27,0 -256.31,-111.4 -256.31,-293.51l0.44 0z"/>
   <path class="fil0" d="M1039.59 1064.35l0 -205.17 -463.88 0c32.91,78.57 120.75,146.96 263.53,205.17l200.35 0zm-534.22 -201.71l0 757.83c59.44,32.85 142.35,56.37 216.34,65.18l0 -304.3 261.69 0 0 -182.84 -261.69 0 0 -129.8c-102.02,-47.19 -174.13,-115.88 -216.34,-206.08z"/>
   <path class="fil0" d="M1394.15 1664.72c165.04,0 311.24,-97.35 311.24,-254.19 0,-121.78 -85.31,-200.81 -214.07,-255.07 -88.98,-37.34 -147.25,-49.73 -147.25,-87.58 0,-28.09 32.28,-51.12 77.11,-51.12 39.43,0 102.76,18.84 127.36,62.46l126.14 -121.78c-32.28,-81.3 -130.32,-140.62 -255.94,-140.62 -156.49,0 -292.05,101.71 -292.05,244.43 0,124.39 89.5,193.13 193.83,238.15 80.78,35.94 165.05,73.27 165.05,115.85 0,33.67 -45.36,50.6 -91.94,50.6 -68.91,0 -132.94,-30.71 -167.14,-81.3l-132.6 129.81c41.53,90.72 164.7,150.39 300.26,150.39z"/>
   <path class="fil0" d="M488.26 499.61l0 4.33c0,139.62 101.88,250.95 234.2,250.54l829.66 -2.54c-72.68,-84.31 -154.65,-135.82 -245.9,-154.54l-583.01 1.85c-46.79,0.17 -88.88,-42.34 -88.88,-96.06l0 -2.48c0,-28.72 6.19,-42.83 22.16,-63.87l-127.99 -78.35c-27.6,42.46 -40.23,85.91 -40.23,141.11z"/>
   <path class="fil0" d="M85.75 0l2107.9 0 0 1876.57c0,147.74 -29.73,289.2 -83.49,418.37 -55.81,134.26 -137.55,255.25 -238.63,356.33 -101.08,101.08 -222.07,182.82 -356.33,238.63 -129.17,53.76 -270.63,83.49 -418.37,83.49 -147.74,0 -289.2,-29.73 -418.37,-83.49 -134.26,-55.81 -255.25,-137.55 -356.33,-238.63 -101.08,-101.08 -182.82,-222.07 -238.63,-356.33 -53.76,-129.17 -83.49,-270.63 -83.49,-418.37l0 -1876.57 85.75 0zm1936.44 171.4l-1850.74 0 0 1705.17c0,124.9 25,244.14 70.17,352.78 46.97,112.91 116.05,215.07 201.7,300.72 167.75,167.75 399.13,271.92 653.51,271.92 124.9,0 244.14,-25 352.78,-70.22 112.96,-46.91 215.07,-116.05 300.72,-201.7 85.65,-85.65 154.73,-187.81 201.7,-300.72 45.17,-108.65 70.16,-227.88 70.16,-352.78l0 -1705.17z"/>
   <polygon class="fil1" points="3128.85,529.37 3129.46,326.78 2525.97,327.43 2523.02,1342.33 2724.02,1342.1 2725.2,935.84 3070.67,935.48 3071.25,732.88 2725.81,733.28 2726.38,529.8 "/>
   <path class="fil1" d="M3648.5 959.96l139.19 -0.6 -303.81 -660.82 -3.93 0.02 -307.24 663.46 138.78 -0.6 41.15 -90.57 255.63 -1.1 40.22 90.22zm-245.57 -199.82l78.49 -173.05 77.22 172.38 -155.71 0.67z"/>
   <path class="fil1" d="M4380.37 870.38l-73.49 -104.7c-42.5,42.3 -93.37,74.11 -152.13,74.36 -98.7,0.42 -199.99,-88.16 -199.66,-203.16 0.33,-112.82 98.49,-205.41 201.26,-205.85 55.11,-0.24 107.43,25.93 150.9,69.09l74.5 -102.88c-66.83,-64.53 -140.53,-97.44 -223.53,-98.31 -180.35,0.78 -332.58,155.55 -333.11,337.84 -0.48,166.7 125.43,309.6 289.6,331.05l-42.68 56.25 15.78 20.72c7.59,-1.54 14.36,-2.39 19.91,-2.41 21.53,-0.09 28.94,10.27 28.91,21.07 -0.06,21.61 -30.3,36.64 -104.23,36.96l32 78.35c90.45,-0.39 158.98,-56.75 159.17,-119.66 0.11,-36.92 -24.32,-63.62 -53.16,-63.5 -6.36,0.03 -10.29,0.45 -16.52,1.3l20.93 -27.03c88.29,-4.76 152.32,-45.92 205.55,-99.48z"/>
   <path class="fil1" d="M4881.16 954.64l139.19 -0.6 -303.81 -660.82 -3.93 0.02 -307.25 663.46 138.78 -0.6 41.15 -90.57 255.63 -1.1 40.22 90.21zm-245.57 -199.82l78.49 -173.05 77.21 172.38 -155.71 0.67z"/>
   <path class="fil1" d="M3855.68 1229.16l-54.21 0.35 -0.55 188.23 54.21 -0.24c60.22,-0.26 97.12,-35.95 97.29,-94.34 0.17,-58.78 -36.53,-94.39 -96.74,-94.02zm-0.2 150.62l-17.1 0.07 0.33 -113.1 16.74 -0.07c36.88,-0.12 59.24,21.28 59.14,56.53 -0.1,35.05 -22.47,56.41 -59.12,56.56l0 0zm209.79 40.37c53.47,-0.23 97.26,-44.25 97.42,-97.84 0.16,-54.08 -43.39,-98.04 -96.73,-97.81 -53.35,0.23 -96.91,44.56 -97.07,98.64 -0.16,53.6 43.15,97.24 96.38,97.01zm0.11 -38.2c-32.5,0.14 -58.91,-26.51 -58.82,-59.21 0.1,-32.9 26.67,-59.9 59.17,-60.03 32.62,-0.14 59.15,26.62 59.06,59.52 -0.09,32.7 -26.79,59.57 -59.4,59.72zm246.55 37.42c40.04,-0.17 67.82,-22.11 67.92,-56.48 0.08,-29.03 -19.3,-44.9 -50.17,-59.52 -21.45,-10.07 -35.62,-13.88 -35.58,-25.13 0.03,-9.73 10.52,-17.95 24.57,-18.01 10.46,-0.04 21.27,4.45 26.77,15.68l27.66 -19.66c-8.35,-22.69 -29.32,-33.21 -54.91,-33.1 -34.35,0.15 -61.66,21.72 -61.75,54.3 -0.09,30.11 22.86,41.61 43.79,52.05 19.6,9.76 41.99,20.55 41.95,34.39 -0.03,10.05 -11.9,17.36 -29.55,17.44 -16.19,0.07 -28.06,-5.94 -36.23,-19.27l-29.99 21.43c12.45,23.28 34.92,36.02 65.52,35.89zm203.13 -155.73l0.11 -37.25 -112.38 0.48 -0.55 188.23 112.38 -0.49 0.11 -37.49 -74.95 0.32 0.11 -39.08 64.32 -0.28 0.11 -37.73 -64.32 0.28 0.11 -36.69 74.94 -0.32zm97.63 154.63c39.68,-0.17 71.99,-31.3 72.12,-73.93l0.35 -118.72 -37.67 0.16 -0.35 118.6c-0.06,20.46 -16.41,35.6 -34.45,35.68 -18.05,0.08 -34.07,-14.81 -34.01,-35.39l0.35 -118.6 -37.67 0.16 -0.35 118.72c-0.12,42.63 32.01,73.48 71.69,73.31z"/>
   <path class="fil1" d="M2667.65 2164.49l6.79 -0.03c221.58,-0.96 399.58,-179.26 400.24,-407.12l-1.99 -628.1 -200.8 0.23 1.78 627.67c-0.32,109 -89.44,204.26 -199.91,204.74l-4.45 0.02c-51.53,0.22 -89.22,-15.25 -123.91,-44.65l-102.51 178.62c65.18,45.55 140.17,68.99 224.77,68.63z"/>
   <path class="fil1" d="M3561.63 1596.13l0.37 -127.72 -385.34 1.66 -1.87 645.46 385.34 -1.67 0.37 -128.54 -256.99 1.11 0.39 -134.01 220.56 -0.95 0.37 -129.36 -220.56 0.95 0.36 -125.81 256.99 -1.11zm93.14 517.46l128.36 -0.55 1.87 -645.73 -128.36 0.55 -1.87 645.73zm646.24 -648.38l-443.43 1.92 -0.37 128.54 157.47 -0.68 -1.5 517.05 128.9 -0.56 1.5 -517.05 157.06 -0.68 0.37 -128.54zm343.08 656.27c183.33,-0.79 333.52,-151.73 334.05,-335.52 0.54,-185.43 -148.77,-336.16 -331.7,-335.37 -182.92,0.79 -332.3,152.81 -332.84,338.25 -0.53,183.79 147.97,333.43 330.49,332.64zm0.38 -131c-111.43,0.48 -202.02,-90.89 -201.69,-203.02 0.33,-112.82 91.45,-205.38 202.88,-205.86 111.84,-0.48 202.83,91.29 202.5,204.11 -0.33,112.13 -91.85,204.29 -203.69,204.77z"/>
   <polygon class="fil2" points="2892.13,1131.51 3463.87,1129.04 3494.04,1280.91 2922.31,1283.38 "/>
   <path class="fil1" d="M3648.5 959.96l139.19 -0.6 -303.81 -660.82 -3.93 0.02 -307.24 663.46 138.78 -0.6 41.15 -90.57 255.63 -1.1 40.22 90.22zm-245.57 -199.82l78.49 -173.05 77.22 172.38 -155.71 0.67z"/>
   <path class="fil1" d="M4380.37 870.38l-73.49 -104.7c-42.5,42.3 -93.37,74.11 -152.13,74.36 -98.7,0.42 -199.99,-88.16 -199.66,-203.16 0.33,-112.82 98.49,-205.41 201.26,-205.85 55.11,-0.24 107.43,25.93 150.9,69.09l74.5 -102.88c-66.83,-64.53 -140.53,-97.44 -223.53,-98.31 -180.35,0.78 -332.58,155.55 -333.11,337.84 -0.48,166.7 125.43,309.6 289.6,331.05l-42.68 56.25 15.78 20.72c7.59,-1.54 14.36,-2.39 19.91,-2.41 21.53,-0.09 28.94,10.27 28.91,21.07 -0.06,21.61 -30.3,36.64 -104.23,36.96l32 78.35c90.45,-0.39 158.98,-56.75 159.17,-119.66 0.11,-36.92 -24.32,-63.62 -53.16,-63.5 -6.36,0.03 -10.29,0.45 -16.52,1.3l20.93 -27.03c88.29,-4.76 152.32,-45.92 205.55,-99.48z"/>
   <path class="fil1" d="M4881.16 954.64l139.19 -0.6 -303.81 -660.82 -3.93 0.02 -307.25 663.46 138.78 -0.6 41.15 -90.57 255.63 -1.1 40.22 90.21zm-245.57 -199.82l78.49 -173.05 77.21 172.38 -155.71 0.67z"/>
   <path class="fil1" d="M3855.68 1229.16l-54.21 0.35 -0.55 188.23 54.21 -0.24c60.22,-0.26 97.12,-35.95 97.29,-94.34 0.17,-58.78 -36.53,-94.39 -96.74,-94.02zm-0.2 150.62l-17.1 0.07 0.33 -113.1 16.74 -0.07c36.88,-0.12 59.24,21.28 59.14,56.53 -0.1,35.05 -22.47,56.41 -59.12,56.56l0 0zm209.79 40.37c53.47,-0.23 97.26,-44.25 97.42,-97.84 0.16,-54.08 -43.39,-98.04 -96.73,-97.81 -53.35,0.23 -96.91,44.56 -97.07,98.64 -0.16,53.6 43.15,97.24 96.38,97.01zm0.11 -38.2c-32.5,0.14 -58.91,-26.51 -58.82,-59.21 0.1,-32.9 26.67,-59.9 59.17,-60.03 32.62,-0.14 59.15,26.62 59.06,59.52 -0.09,32.7 -26.79,59.57 -59.4,59.72zm246.55 37.42c40.04,-0.17 67.82,-22.11 67.92,-56.48 0.08,-29.03 -19.3,-44.9 -50.17,-59.52 -21.45,-10.07 -35.62,-13.88 -35.58,-25.13 0.03,-9.73 10.52,-17.95 24.57,-18.01 10.46,-0.04 21.27,4.45 26.77,15.68l27.66 -19.66c-8.35,-22.69 -29.32,-33.21 -54.91,-33.1 -34.35,0.15 -61.66,21.72 -61.75,54.3 -0.09,30.11 22.86,41.61 43.79,52.05 19.6,9.76 41.99,20.55 41.95,34.39 -0.03,10.05 -11.9,17.36 -29.55,17.44 -16.19,0.07 -28.06,-5.94 -36.23,-19.27l-29.99 21.43c12.45,23.28 34.92,36.02 65.52,35.89zm203.13 -155.73l0.11 -37.25 -112.38 0.48 -0.55 188.23 112.38 -0.49 0.11 -37.49 -74.95 0.32 0.11 -39.08 64.32 -0.28 0.11 -37.73 -64.32 0.28 0.11 -36.69 74.94 -0.32zm97.63 154.63c39.68,-0.17 71.99,-31.3 72.12,-73.93l0.35 -118.72 -37.67 0.16 -0.35 118.6c-0.06,20.46 -16.41,35.6 -34.45,35.68 -18.05,0.08 -34.07,-14.81 -34.01,-35.39l0.35 -118.6 -37.67 0.16 -0.35 118.72c-0.12,42.63 32.01,73.48 71.69,73.31z"/>
   <path class="fil1" d="M3561.63 1596.13l0.37 -127.72 -385.34 1.66 -1.87 645.46 385.34 -1.67 0.37 -128.54 -256.99 1.11 0.39 -134.01 220.56 -0.95 0.37 -129.36 -220.56 0.95 0.36 -125.81 256.99 -1.11zm93.14 517.46l128.36 -0.55 1.87 -645.73 -128.36 0.55 -1.87 645.73zm646.24 -648.38l-443.43 1.92 -0.37 128.54 157.47 -0.68 -1.5 517.05 128.9 -0.56 1.5 -517.05 157.06 -0.68 0.37 -128.54zm343.08 656.27c183.33,-0.79 333.52,-151.73 334.05,-335.52 0.54,-185.43 -148.77,-336.16 -331.7,-335.37 -182.92,0.79 -332.3,152.81 -332.84,338.25 -0.53,183.79 147.97,333.43 330.49,332.64zm0.38 -131c-111.43,0.48 -202.02,-90.89 -201.69,-203.02 0.33,-112.82 91.45,-205.38 202.88,-205.86 111.84,-0.48 202.83,91.29 202.5,204.11 -0.33,112.13 -91.85,204.29 -203.69,204.77z"/>
   <polygon class="fil2" points="2871.92,1129.42 3494.03,1129.42 3494.03,1280.9 2871.92,1280.9 "/>
  </g>
 </g>
</svg>
